:SAMPLES-PER-SECOND 30
:FULLY-SPECIFIED
:DEGREES
97
root  40.151 40.1025 -0.836647 -23.0086 -85.1342 34.4395
RightUpLeg  -24.8357 -9.47279 -5.21086
RightLeg  7.05244 -5.83537 4.83737
RightFoot  8.94002 0.904809 -4.70986
RightToes  2.32829e-010 0 -3.6325e-017
Spine  39.9096 -2.19206 5.39871
Spine1  -10.2208 -0.0376442 -5.99495
HEad  -44.5047 -1.45375 -4.56131
LeftShoulder1  6.34645 -21.5972 -18.6342
LeftArm  -87.0047 -59.4384 17.1073
LeftForeArm  -9.70269 -26.9618 -6.28536
LeftHand  -0.244104 0.0205437 5.32207
RightShoulder  3.49189 11.6236 16.4064
RightArm  -66.6689 48.1535 -0.203118
RightForeArm  -40.6283 46.1421 13.8398
RightHand  -3.35537 11.2324 -23.9322
LeftUpLeg  -21.6725 5.19802 -1.89855
LeftLeg  6.6399 14.265 -3.71968
LeftFoot  4.80981 -0.791501 5.36942
LeftToes  1.42787e-010 7.94111e-011 2.6399e-011
98
root  39.9257 40.1817 -0.872062 -22.7787 -85.2617 34.727
RightUpLeg  -24.4096 -9.28465 -5.20039
RightLeg  5.79079 -5.91052 5.1493
RightFoot  9.2352 0.912671 -4.67251
RightToes  2.32829e-010 0 -3.6325e-017
Spine  39.1919 -1.96587 4.7001
Spine1  -10.9512 -0.149671 -5.24425
HEad  -44.0799 -0.814591 -4.08644
LeftShoulder1  6.04835 -20.6182 -18.4299
LeftArm  -91.1848 -58.7402 17.7502
LeftForeArm  -4.40263 -26.806 -5.99247
LeftHand  -0.244104 0.0205437 5.32207
RightShoulder  3.57955 12.0575 16.3139
RightArm  -60.5292 47.3961 3.03318
RightForeArm  -42.0147 45.7438 13.7143
RightHand  -4.66767 12.6346 -29.8672
LeftUpLeg  -21.1085 3.66883 -1.14681
LeftLeg  5.0658 15.8938 -4.32329
LeftFoot  5.15283 -0.835544 5.54452
LeftToes  1.42787e-010 7.94111e-011 2.6399e-011
99
root  39.6717 40.2718 -0.905625 -24.9575 -85.4602 36.4179
RightUpLeg  -23.1071 -9.1654 -5.20493
RightLeg  5.04611 -5.6813 5.1848
RightFoot  9.16426 0.899311 -4.61796
RightToes  2.32829e-010 0 -3.6325e-017
Spine  38.2876 -1.7584 4.25937
Spine1  -9.85619 -0.0594762 -4.94331
HEad  -44.1102 -0.896619 -3.70325
LeftShoulder1  5.90533 -19.5157 -19.0673
LeftArm  -83.3098 -56.4612 13.8047
LeftForeArm  -2.63471 -27.7429 -6.12404
LeftHand  -0.244104 0.0205437 5.32207
RightShoulder  3.96793 12.9167 17.5614
RightArm  -47.136 43.9375 7.45546
RightForeArm  -45.5731 44.1753 13.14
RightHand  -3.98393 10.5265 -28.7477
LeftUpLeg  -19.5771 2.89257 -0.728273
LeftLeg  3.86789 16.9057 -4.62749
LeftFoot  5.31182 -0.813727 5.3352
LeftToes  1.42787e-010 7.94111e-011 2.6399e-011
100
root  39.4554 40.3321 -0.944552 -26.6141 -85.2208 37.1769
RightUpLeg  -21.8164 -9.26328 -5.4155
RightLeg  5.26015 -5.68644 5.00717
RightFoot  8.55817 0.867443 -4.6044
RightToes  2.32829e-010 0 -3.6325e-017
Spine  37.4147 -1.49263 4.51154
Spine1  -8.04143 0.334229 -4.98272
HEad  -44.1376 -1.81278 -3.94086
LeftShoulder1  6.17125 -19.2504 -20.6319
LeftArm  -71.6594 -53.2484 6.89135
LeftForeArm  -3.28814 -28.786 -6.4096
LeftHand  -0.244104 0.0205437 5.32207
RightShoulder  4.61939 13.5986 20.6325
RightArm  -35.0835 39.0158 10.5752
RightForeArm  -50.3423 43.1445 12.836
RightHand  -3.43329 9.23857 -27.0933
LeftUpLeg  -17.9344 2.69467 -0.731309
LeftLeg  3.21093 16.9638 -4.81478
LeftFoot  5.33663 -0.761032 4.96685
LeftToes  1.42787e-010 7.94111e-011 2.6399e-011
101
root  39.2781 40.3433 -0.978905 -24.2398 -84.5362 34.2224
RightUpLeg  -21.1983 -9.58755 -5.67835
RightLeg  6.1876 -6.06874 4.84572
RightFoot  7.62337 0.818823 -4.58352
RightToes  2.32829e-010 0 -3.6325e-017
Spine  36.7517 -1.25812 5.17844
Spine1  -6.8107 0.74299 -4.66133
HEad  -44.2339 -2.7394 -4.6529
LeftShoulder1  7.01774 -19.619 -24.0414
LeftArm  -61.2976 -49.0393 0.330328
LeftForeArm  -4.60163 -29.6324 -6.68788
LeftHand  -0.244104 0.0205437 5.32207
RightShoulder  5.31443 13.7229 24.7037
RightArm  -27.5365 33.934 12.1122
RightForeArm  -54.0171 42.3262 12.5863
RightHand  -3.52811 9.27285 -27.738
LeftUpLeg  -17.059 2.86932 -0.873719
LeftLeg  3.24193 16.1211 -4.93382
LeftFoot  5.07446 -0.719372 4.7707
LeftToes  1.42787e-010 7.94111e-011 2.6399e-011
102
root  39.1259 40.3233 -1.00192 -19.9166 -83.8471 29.7402
RightUpLeg  -21.1448 -9.96254 -5.7133
RightLeg  7.26234 -6.48535 4.69672
RightFoot  6.69628 0.754215 -4.45695
RightToes  2.32829e-010 0 -3.6325e-017
Spine  36.443 -1.18796 5.76343
Spine1  -6.31174 0.907377 -3.97128
HEad  -44.878 -3.03095 -5.04585
LeftShoulder1  8.0884 -19.633 -28.8322
LeftArm  -52.9086 -43.7312 -3.94902
LeftForeArm  -5.17006 -30.7459 -7.00074
LeftHand  -0.244104 0.0205437 5.32207
RightShoulder  5.86478 13.5957 28.2775
RightArm  -22.2356 28.5483 13.2711
RightForeArm  -53.7108 41.8441 12.3932
RightHand  -3.09617 8.06637 -26.5051
LeftUpLeg  -16.9336 3.29496 -0.951069
LeftLeg  3.77258 14.9378 -4.89475
LeftFoot  4.54191 -0.697314 4.79825
LeftToes  1.42787e-010 7.94111e-011 2.6399e-011
103
root  39.0176 40.2945 -1.02403 -16.7343 -83.323 26.5725
RightUpLeg  -21.3641 -10.3468 -5.53276
RightLeg  8.25951 -6.67341 4.39666
RightFoot  5.89472 0.681976 -4.22861
RightToes  2.32829e-010 0 -3.6325e-017
Spine  36.5267 -1.27933 6.11449
Spine1  -5.98749 0.881136 -3.46038
HEad  -46.0716 -2.91543 -4.74502
LeftShoulder1  8.86888 -19.074 -33.1945
LeftArm  -45.9615 -37.8215 -6.71885
LeftForeArm  -4.84062 -32.1106 -7.33955
LeftHand  -0.244104 0.0205437 5.32207
RightShoulder  6.25435 13.543 30.7173
RightArm  -17.5635 22.5758 14.6548
RightForeArm  -51.7971 42.1833 12.489
RightHand  -2.33162 6.26779 -23.2323
LeftUpLeg  -17.1183 3.68998 -1.03061
LeftLeg  4.4076 13.9975 -4.71499
LeftFoot  4.0214 -0.675493 4.824
LeftToes  1.42787e-010 7.94111e-011 2.6399e-011
104
root  38.9706 40.2617 -1.05162 -15.0661 -82.7279 25.0337
RightUpLeg  -21.7816 -10.7868 -5.41583
RightLeg  9.17876 -6.84044 4.01385
RightFoot  5.20001 0.624776 -4.04945
RightToes  2.32829e-010 0 -3.6325e-017
Spine  36.8638 -1.43997 6.422
Spine1  -5.6763 0.821565 -3.35441
HEad  -47.1827 -2.90232 -4.25945
LeftShoulder1  9.37548 -18.534 -36.4054
LeftArm  -40.1027 -32.0234 -9.17285
LeftForeArm  -4.58819 -33.0926 -7.59
LeftHand  -0.244104 0.0205437 5.32207
RightShoulder  6.52609 13.4896 32.4454
RightArm  -13.74 16.3689 16.0679
RightForeArm  -52.1792 43.262 12.9226
RightHand  -1.89837 4.94113 -21.4124
LeftUpLeg  -17.4699 3.89409 -1.26839
LeftLeg  4.91865 13.2299 -4.50297
LeftFoot  3.70319 -0.641593 4.68581
LeftToes  1.42787e-010 7.94111e-011 2.6399e-011
105
root  38.9678 40.2263 -1.07418 -13.7403 -82.0377 24.035
RightUpLeg  -22.364 -11.275 -5.41499
RightLeg  9.88157 -7.08326 3.77039
RightFoot  4.67252 0.595713 -4.00377
RightToes  2.32829e-010 0 -3.6325e-017
Spine  37.2514 -1.56855 6.80606
Spine1  -5.55366 0.832306 -3.43284
HEad  -47.7788 -3.09633 -4.1399
LeftShoulder1  9.96113 -18.3562 -39.3201
LeftArm  -35.0127 -26.622 -11.0818
LeftForeArm  -4.97413 -33.6086 -7.75294
LeftHand  -0.244104 0.0205437 5.32207
RightShoulder  6.7168 13.3197 33.9625
RightArm  -10.9033 10.3095 17.2411
RightForeArm  -52.9526 44.7287 13.5458
RightHand  -1.59356 3.43581 -20.9859
LeftUpLeg  -18.0266 3.92476 -1.5779
LeftLeg  5.26078 12.4993 -4.34224
LeftFoot  3.52509 -0.605957 4.47835
LeftToes  1.42787e-010 7.94111e-011 2.6399e-011
106
root  38.9876 40.1984 -1.08833 -12.4069 -81.6205 23.1801
RightUpLeg  -22.9983 -11.5982 -5.33317
RightLeg  10.1914 -7.21848 3.68385
RightFoot  4.43047 0.583634 -3.99075
RightToes  2.32829e-010 0 -3.6325e-017
Spine  37.648 -1.58311 7.04537
Spine1  -5.59821 0.930607 -3.46764
HEad  -48.0391 -3.2555 -4.23667
LeftShoulder1  10.6732 -18.3444 -42.4152
LeftArm  -30.6127 -21.5169 -12.0624
LeftForeArm  -5.45179 -34.1355 -7.92603
LeftHand  -0.244104 0.0205437 5.32207
RightShoulder  6.87038 13.1482 35.2785
RightArm  -8.75911 4.77009 18.3393
RightForeArm  -50.6864 46.2867 14.1843
RightHand  -1.2835 2.13266 -19.8399
LeftUpLeg  -18.6862 3.7887 -1.70707
LeftLeg  5.42121 12.1592 -4.25437
LeftFoot  3.43427 -0.586621 4.36159
LeftToes  1.42787e-010 7.94111e-011 2.6399e-011
107
root  39.0341 40.1849 -1.10842 -11.5062 -81.588 22.7784
RightUpLeg  -23.6202 -11.6209 -5.125
RightLeg  10.1754 -7.2266 3.61444
RightFoot  4.4944 0.583855 -3.97281
RightToes  2.32829e-010 0 -3.6325e-017
Spine  38.1496 -1.5312 6.8877
Spine1  -5.64582 0.988736 -3.42188
HEad  -48.3612 -3.23507 -4.11311
LeftShoulder1  11.2273 -18.2338 -44.9919
LeftArm  -27.1872 -16.61 -12.7938
LeftForeArm  -5.48111 -34.8879 -8.14116
LeftHand  -0.244104 0.0205437 5.32207
RightShoulder  7.00906 13.0815 36.2601
RightArm  -7.36986 0.251823 19.8066
RightForeArm  -47.2246 47.602 14.7175
RightHand  -1.1621 1.87733 -18.6299
LeftUpLeg  -19.3104 3.54796 -1.62368
LeftLeg  5.38503 12.3395 -4.25074
LeftFoot  3.5339 -0.590617 4.35781
LeftToes  1.42787e-010 7.94111e-011 2.6399e-011
108
root  39.1175 40.1768 -1.13813 -10.8963 -81.5565 22.6571
RightUpLeg  -24.2481 -11.5407 -4.97588
RightLeg  10.0509 -7.35326 3.56172
RightFoot  4.73437 0.605787 -4.05592
RightToes  2.32829e-010 0 -3.6325e-017
Spine  38.7642 -1.58665 6.46426
Spine1  -5.68505 0.830528 -3.32907
HEad  -48.8639 -3.14957 -3.7438
LeftShoulder1  11.4942 -18.0346 -46.5442
LeftArm  -24.8214 -11.9176 -13.9685
LeftForeArm  -5.21236 -35.777 -8.38437
LeftHand  -0.244104 0.0205437 5.32207
RightShoulder  7.11636 13.05 36.97
RightArm  -6.94708 -3.16695 21.7332
RightForeArm  -45.6144 48.5832 15.1563
RightHand  -1.15982 1.84162 -18.6787
LeftUpLeg  -19.8921 3.29755 -1.51748
LeftLeg  5.14633 12.5789 -4.37317
LeftFoot  3.85877 -0.60998 4.3938
LeftToes  1.42787e-010 7.94111e-011 2.6399e-011
109
root  39.2293 40.1608 -1.15909 -10.0171 -81.2873 22.294
RightUpLeg  -24.8846 -11.5529 -4.9873
RightLeg  9.91282 -7.68923 3.61678
RightFoot  4.96541 0.631512 -4.16628
RightToes  2.32829e-010 0 -3.6325e-017
Spine  39.3536 -1.79027 6.09504
Spine1  -5.72355 0.500898 -3.21181
HEad  -49.3969 -3.14932 -3.40658
LeftShoulder1  11.6477 -17.869 -47.5561
LeftArm  -23.0489 -7.60772 -15.3669
LeftForeArm  -4.76361 -36.7709 -8.65543
LeftHand  -0.244104 0.0205437 5.32207
RightShoulder  7.17201 12.974 37.4896
RightArm  -7.21373 -5.93898 23.6998
RightForeArm  -44.8066 49.6098 15.6616
RightHand  -1.07627 1.17978 -19.0358
LeftUpLeg  -20.4939 3.05346 -1.48464
LeftLeg  4.79212 12.5644 -4.59395
LeftFoot  4.20226 -0.625824 4.3964
LeftToes  1.42787e-010 7.94111e-011 2.6399e-011
